<mxfile host="app.diagrams.net" agent="Mozilla/5.0 (Macintosh; Intel Mac OS X 10_15_7) AppleWebKit/537.36 (KHTML, like Gecko) Chrome/139.0.0.0 Safari/537.36" version="28.2.8">
  <diagram name="代码生成工作流" id="7xquBdebTUAmwGCTOpvD">
    <mxGraphModel dx="1850" dy="851" grid="1" gridSize="10" guides="1" tooltips="1" connect="1" arrows="1" fold="1" page="1" pageScale="1" pageWidth="827" pageHeight="1169" math="0" shadow="0">
      <root>
        <mxCell id="0" />
        <mxCell id="1" parent="0" />
        <mxCell id="7i-dKK6QnZqKv-kw0g70-29" value="输入技术文档" style="rounded=1;whiteSpace=wrap;html=1;fillColor=#e1f5e1;strokeColor=#82b366;fontSize=14;fontStyle=1;" parent="1" vertex="1">
          <mxGeometry x="700" y="200" width="200" height="60" as="geometry" />
        </mxCell>
        <mxCell id="7i-dKK6QnZqKv-kw0g70-144" value="" style="edgeStyle=orthogonalEdgeStyle;rounded=0;orthogonalLoop=1;jettySize=auto;html=1;" parent="1" source="7i-dKK6QnZqKv-kw0g70-30" target="7i-dKK6QnZqKv-kw0g70-143" edge="1">
          <mxGeometry relative="1" as="geometry" />
        </mxCell>
        <mxCell id="7i-dKK6QnZqKv-kw0g70-30" value="任务拆解Agent" style="rounded=0;whiteSpace=wrap;html=1;fillColor=#fff4e1;strokeColor=#d6b656;fontSize=14;fontStyle=1;" parent="1" vertex="1">
          <mxGeometry x="700" y="300" width="200" height="60" as="geometry" />
        </mxCell>
        <mxCell id="7i-dKK6QnZqKv-kw0g70-32" value="构建沙箱环境Agent" style="rounded=0;whiteSpace=wrap;html=1;fillColor=#fff4e1;strokeColor=#d6b656;fontSize=14;fontStyle=1;" parent="1" vertex="1">
          <mxGeometry x="700" y="500" width="200" height="60" as="geometry" />
        </mxCell>
        <mxCell id="7i-dKK6QnZqKv-kw0g70-92" value="" style="edgeStyle=orthogonalEdgeStyle;rounded=0;orthogonalLoop=1;jettySize=auto;html=1;" parent="1" source="7i-dKK6QnZqKv-kw0g70-33" edge="1">
          <mxGeometry relative="1" as="geometry">
            <mxPoint x="800" y="700" as="targetPoint" />
          </mxGeometry>
        </mxCell>
        <mxCell id="7i-dKK6QnZqKv-kw0g70-33" value="- 拉取代码仓库&lt;br&gt;- 设置Golang环境&lt;br&gt;- 下载依赖包" style="rounded=0;whiteSpace=wrap;html=1;fillColor=#f5f5f5;strokeColor=#666666;fontSize=12;align=left;spacingLeft=10;" parent="1" vertex="1">
          <mxGeometry x="700" y="600" width="200" height="60" as="geometry" />
        </mxCell>
        <mxCell id="7i-dKK6QnZqKv-kw0g70-54" value="数据收集与分析" style="rounded=0;whiteSpace=wrap;html=1;fillColor=#f5f5f5;strokeColor=#666666;fontSize=12;" parent="1" vertex="1">
          <mxGeometry x="800" y="4410" width="200" height="60" as="geometry" />
        </mxCell>
        <mxCell id="7i-dKK6QnZqKv-kw0g70-55" value="流程结束" style="rounded=1;whiteSpace=wrap;html=1;fillColor=#ffe1e1;strokeColor=#b85450;fontSize=14;fontStyle=1;" parent="1" vertex="1">
          <mxGeometry x="800" y="4510" width="200" height="60" as="geometry" />
        </mxCell>
        <mxCell id="7i-dKK6QnZqKv-kw0g70-56" parent="1" source="7i-dKK6QnZqKv-kw0g70-29" target="7i-dKK6QnZqKv-kw0g70-30" edge="1">
          <mxGeometry relative="1" as="geometry" />
        </mxCell>
        <mxCell id="7i-dKK6QnZqKv-kw0g70-58" parent="1" target="7i-dKK6QnZqKv-kw0g70-32" edge="1">
          <mxGeometry relative="1" as="geometry">
            <mxPoint x="800" y="440" as="sourcePoint" />
          </mxGeometry>
        </mxCell>
        <mxCell id="7i-dKK6QnZqKv-kw0g70-59" parent="1" source="7i-dKK6QnZqKv-kw0g70-32" target="7i-dKK6QnZqKv-kw0g70-33" edge="1">
          <mxGeometry relative="1" as="geometry" />
        </mxCell>
        <mxCell id="7i-dKK6QnZqKv-kw0g70-89" parent="1" source="7i-dKK6QnZqKv-kw0g70-54" target="7i-dKK6QnZqKv-kw0g70-55" edge="1">
          <mxGeometry relative="1" as="geometry" />
        </mxCell>
        <mxCell id="7i-dKK6QnZqKv-kw0g70-154" value="" style="edgeStyle=orthogonalEdgeStyle;rounded=0;orthogonalLoop=1;jettySize=auto;html=1;" parent="1" source="7i-dKK6QnZqKv-kw0g70-93" target="7i-dKK6QnZqKv-kw0g70-97" edge="1">
          <mxGeometry relative="1" as="geometry" />
        </mxCell>
        <mxCell id="7i-dKK6QnZqKv-kw0g70-93" value="生成代码Agent" style="rounded=0;whiteSpace=wrap;html=1;fillColor=#fff4e1;strokeColor=#d6b656;fontSize=14;fontStyle=1;" parent="1" vertex="1">
          <mxGeometry x="725" y="920" width="150" height="40" as="geometry" />
        </mxCell>
        <mxCell id="7i-dKK6QnZqKv-kw0g70-153" style="edgeStyle=orthogonalEdgeStyle;rounded=0;orthogonalLoop=1;jettySize=auto;html=1;exitX=0.5;exitY=1;exitDx=0;exitDy=0;entryX=0.5;entryY=0;entryDx=0;entryDy=0;" parent="1" source="7i-dKK6QnZqKv-kw0g70-94" target="7i-dKK6QnZqKv-kw0g70-93" edge="1">
          <mxGeometry relative="1" as="geometry" />
        </mxCell>
        <mxCell id="7i-dKK6QnZqKv-kw0g70-94" value="工程2" style="rounded=0;whiteSpace=wrap;html=1;fillColor=#d5e8d4;strokeColor=#82b366;fontSize=12;" parent="1" vertex="1">
          <mxGeometry x="740" y="810" width="120" height="50" as="geometry" />
        </mxCell>
        <mxCell id="7i-dKK6QnZqKv-kw0g70-130" value="" style="edgeStyle=orthogonalEdgeStyle;rounded=0;orthogonalLoop=1;jettySize=auto;html=1;" parent="1" source="7i-dKK6QnZqKv-kw0g70-97" target="7i-dKK6QnZqKv-kw0g70-98" edge="1">
          <mxGeometry relative="1" as="geometry" />
        </mxCell>
        <mxCell id="7i-dKK6QnZqKv-kw0g70-97" value="生成每个工程下各层的代码&lt;div&gt;- biz&lt;/div&gt;&lt;div&gt;- mysql&lt;/div&gt;&lt;div&gt;- cache&lt;/div&gt;&lt;div&gt;- service&lt;/div&gt;&lt;div&gt;- rpc&lt;/div&gt;" style="rounded=0;whiteSpace=wrap;html=1;fillColor=#f5f5f5;strokeColor=#666666;fontSize=11;align=left;spacingLeft=10;" parent="1" vertex="1">
          <mxGeometry x="725" y="999" width="150" height="91" as="geometry" />
        </mxCell>
        <mxCell id="7i-dKK6QnZqKv-kw0g70-131" value="" style="edgeStyle=orthogonalEdgeStyle;rounded=0;orthogonalLoop=1;jettySize=auto;html=1;" parent="1" source="7i-dKK6QnZqKv-kw0g70-98" target="7i-dKK6QnZqKv-kw0g70-99" edge="1">
          <mxGeometry relative="1" as="geometry">
            <Array as="points">
              <mxPoint x="805" y="1200" />
              <mxPoint x="805" y="1200" />
            </Array>
          </mxGeometry>
        </mxCell>
        <mxCell id="7i-dKK6QnZqKv-kw0g70-98" value="代码质检Agent" style="rounded=0;whiteSpace=wrap;html=1;fillColor=#fff4e1;strokeColor=#d6b656;fontSize=14;fontStyle=1;" parent="1" vertex="1">
          <mxGeometry x="725" y="1120" width="150" height="60" as="geometry" />
        </mxCell>
        <mxCell id="7i-dKK6QnZqKv-kw0g70-127" style="edgeStyle=orthogonalEdgeStyle;rounded=0;orthogonalLoop=1;jettySize=auto;html=1;entryX=0.5;entryY=0;entryDx=0;entryDy=0;exitX=0.5;exitY=1;exitDx=0;exitDy=0;" parent="1" source="7i-dKK6QnZqKv-kw0g70-99" target="7i-dKK6QnZqKv-kw0g70-101" edge="1">
          <mxGeometry relative="1" as="geometry" />
        </mxCell>
        <mxCell id="7i-dKK6QnZqKv-kw0g70-99" value="1. 代码编译&lt;br&gt;2. 静态代码检测&lt;br&gt;3. 性能检测&lt;br&gt;4. 安全检测&lt;br&gt;5. 代码风格检查" style="rounded=0;whiteSpace=wrap;html=1;fillColor=#f5f5f5;strokeColor=#666666;fontSize=12;align=left;spacingLeft=10;" parent="1" vertex="1">
          <mxGeometry x="725" y="1210" width="150" height="80" as="geometry" />
        </mxCell>
        <mxCell id="7i-dKK6QnZqKv-kw0g70-158" style="edgeStyle=orthogonalEdgeStyle;rounded=0;orthogonalLoop=1;jettySize=auto;html=1;exitX=0;exitY=0.5;exitDx=0;exitDy=0;entryX=0;entryY=0.5;entryDx=0;entryDy=0;" parent="1" source="7i-dKK6QnZqKv-kw0g70-101" target="7i-dKK6QnZqKv-kw0g70-93" edge="1">
          <mxGeometry relative="1" as="geometry">
            <Array as="points">
              <mxPoint x="625" y="1370" />
              <mxPoint x="625" y="940" />
            </Array>
          </mxGeometry>
        </mxCell>
        <mxCell id="7i-dKK6QnZqKv-kw0g70-159" value="不通过" style="edgeLabel;html=1;align=center;verticalAlign=middle;resizable=0;points=[];" parent="7i-dKK6QnZqKv-kw0g70-158" vertex="1" connectable="0">
          <mxGeometry x="-0.8038" y="-2" relative="1" as="geometry">
            <mxPoint as="offset" />
          </mxGeometry>
        </mxCell>
        <mxCell id="7i-dKK6QnZqKv-kw0g70-101" value="质检结果" style="rhombus;whiteSpace=wrap;html=1;fillColor=#dae8fc;strokeColor=#6c8ebf;fontSize=12;" parent="1" vertex="1">
          <mxGeometry x="740" y="1330" width="120" height="80" as="geometry" />
        </mxCell>
        <mxCell id="7i-dKK6QnZqKv-kw0g70-103" value="单元测试Agent" style="rounded=0;whiteSpace=wrap;html=1;fillColor=#fff4e1;strokeColor=#d6b656;fontSize=14;fontStyle=1;" parent="1" vertex="1">
          <mxGeometry x="725" y="1470" width="150" height="60" as="geometry" />
        </mxCell>
        <mxCell id="7i-dKK6QnZqKv-kw0g70-104" value="生成单元测试代码" style="rounded=0;whiteSpace=wrap;html=1;fillColor=#f5f5f5;strokeColor=#666666;fontSize=12;" parent="1" vertex="1">
          <mxGeometry x="725" y="1560" width="150" height="60" as="geometry" />
        </mxCell>
        <mxCell id="7i-dKK6QnZqKv-kw0g70-105" value="运行单元测试" style="rounded=0;whiteSpace=wrap;html=1;fillColor=#f5f5f5;strokeColor=#666666;fontSize=12;" parent="1" vertex="1">
          <mxGeometry x="725" y="1660" width="150" height="60" as="geometry" />
        </mxCell>
        <mxCell id="7i-dKK6QnZqKv-kw0g70-150" style="edgeStyle=orthogonalEdgeStyle;rounded=0;orthogonalLoop=1;jettySize=auto;html=1;entryX=0;entryY=0.5;entryDx=0;entryDy=0;" parent="1" source="7i-dKK6QnZqKv-kw0g70-106" target="7i-dKK6QnZqKv-kw0g70-103" edge="1">
          <mxGeometry relative="1" as="geometry">
            <Array as="points">
              <mxPoint x="625" y="1800" />
              <mxPoint x="625" y="1500" />
            </Array>
          </mxGeometry>
        </mxCell>
        <mxCell id="7i-dKK6QnZqKv-kw0g70-106" value="测试结果" style="rhombus;whiteSpace=wrap;html=1;fillColor=#dae8fc;strokeColor=#6c8ebf;fontSize=12;" parent="1" vertex="1">
          <mxGeometry x="740" y="1760" width="120" height="80" as="geometry" />
        </mxCell>
        <mxCell id="7i-dKK6QnZqKv-kw0g70-107" value="CI/CD Agent" style="rounded=0;whiteSpace=wrap;html=1;fillColor=#fff4e1;strokeColor=#d6b656;fontSize=14;fontStyle=1;" parent="1" vertex="1">
          <mxGeometry x="725" y="1910" width="150" height="60" as="geometry" />
        </mxCell>
        <mxCell id="7i-dKK6QnZqKv-kw0g70-108" value="- 生成Checklist报告&lt;br&gt;- 配置文件检查&lt;br&gt;- 数据库变更检查&lt;br&gt;- Git Commit &amp;amp; Push&lt;br&gt;- 触发CI/CD Pipeline" style="rounded=0;whiteSpace=wrap;html=1;fillColor=#f5f5f5;strokeColor=#666666;fontSize=12;align=left;spacingLeft=10;" parent="1" vertex="1">
          <mxGeometry x="725" y="2000" width="150" height="110" as="geometry" />
        </mxCell>
        <mxCell id="7i-dKK6QnZqKv-kw0g70-109" value="代码评分Agent" style="rounded=0;whiteSpace=wrap;html=1;fillColor=#fff4e1;strokeColor=#d6b656;fontSize=14;fontStyle=1;" parent="1" vertex="1">
          <mxGeometry x="725" y="2160" width="150" height="60" as="geometry" />
        </mxCell>
        <mxCell id="7i-dKK6QnZqKv-kw0g70-110" value="- 代码可靠性&lt;br&gt;- 代码可维护性&lt;br&gt;- 性能&lt;br&gt;- 安全&lt;br&gt;- 测试覆盖率" style="rounded=0;whiteSpace=wrap;html=1;fillColor=#f5f5f5;strokeColor=#666666;fontSize=12;align=left;spacingLeft=10;" parent="1" vertex="1">
          <mxGeometry x="725" y="2260" width="150" height="90" as="geometry" />
        </mxCell>
        <mxCell id="ojRhYwykPZPLhRRzEG6r-12" value="" style="edgeStyle=orthogonalEdgeStyle;rounded=0;orthogonalLoop=1;jettySize=auto;html=1;" edge="1" parent="1" source="7i-dKK6QnZqKv-kw0g70-111" target="ojRhYwykPZPLhRRzEG6r-11">
          <mxGeometry relative="1" as="geometry" />
        </mxCell>
        <mxCell id="7i-dKK6QnZqKv-kw0g70-111" value="数据收集与分析" style="rounded=0;whiteSpace=wrap;html=1;fillColor=#f5f5f5;strokeColor=#666666;fontSize=12;" parent="1" vertex="1">
          <mxGeometry x="725" y="2380" width="150" height="60" as="geometry" />
        </mxCell>
        <mxCell id="7i-dKK6QnZqKv-kw0g70-114" parent="1" source="7i-dKK6QnZqKv-kw0g70-101" target="7i-dKK6QnZqKv-kw0g70-103" edge="1">
          <mxGeometry relative="1" as="geometry" />
        </mxCell>
        <mxCell id="7i-dKK6QnZqKv-kw0g70-115" value="通过" style="edgeLabel;html=1;align=center;verticalAlign=middle;resizable=0;points=[];" parent="1" source="7i-dKK6QnZqKv-kw0g70-101" target="7i-dKK6QnZqKv-kw0g70-103" edge="1">
          <mxGeometry x="-0.2" y="2" relative="1" as="geometry">
            <mxPoint as="offset" />
          </mxGeometry>
        </mxCell>
        <mxCell id="7i-dKK6QnZqKv-kw0g70-116" parent="1" source="7i-dKK6QnZqKv-kw0g70-103" target="7i-dKK6QnZqKv-kw0g70-104" edge="1">
          <mxGeometry relative="1" as="geometry" />
        </mxCell>
        <mxCell id="7i-dKK6QnZqKv-kw0g70-117" parent="1" source="7i-dKK6QnZqKv-kw0g70-104" target="7i-dKK6QnZqKv-kw0g70-105" edge="1">
          <mxGeometry relative="1" as="geometry" />
        </mxCell>
        <mxCell id="7i-dKK6QnZqKv-kw0g70-118" parent="1" source="7i-dKK6QnZqKv-kw0g70-105" target="7i-dKK6QnZqKv-kw0g70-106" edge="1">
          <mxGeometry relative="1" as="geometry" />
        </mxCell>
        <mxCell id="7i-dKK6QnZqKv-kw0g70-121" parent="1" source="7i-dKK6QnZqKv-kw0g70-106" target="7i-dKK6QnZqKv-kw0g70-107" edge="1">
          <mxGeometry relative="1" as="geometry" />
        </mxCell>
        <mxCell id="7i-dKK6QnZqKv-kw0g70-122" value="通过" style="edgeLabel;html=1;align=center;verticalAlign=middle;resizable=0;points=[];" parent="1" source="7i-dKK6QnZqKv-kw0g70-106" target="7i-dKK6QnZqKv-kw0g70-107" edge="1">
          <mxGeometry x="-0.2" y="2" relative="1" as="geometry">
            <mxPoint as="offset" />
          </mxGeometry>
        </mxCell>
        <mxCell id="7i-dKK6QnZqKv-kw0g70-123" parent="1" source="7i-dKK6QnZqKv-kw0g70-107" target="7i-dKK6QnZqKv-kw0g70-108" edge="1">
          <mxGeometry relative="1" as="geometry" />
        </mxCell>
        <mxCell id="7i-dKK6QnZqKv-kw0g70-124" parent="1" source="7i-dKK6QnZqKv-kw0g70-108" target="7i-dKK6QnZqKv-kw0g70-109" edge="1">
          <mxGeometry relative="1" as="geometry" />
        </mxCell>
        <mxCell id="7i-dKK6QnZqKv-kw0g70-125" parent="1" source="7i-dKK6QnZqKv-kw0g70-109" target="7i-dKK6QnZqKv-kw0g70-110" edge="1">
          <mxGeometry relative="1" as="geometry" />
        </mxCell>
        <mxCell id="7i-dKK6QnZqKv-kw0g70-126" parent="1" source="7i-dKK6QnZqKv-kw0g70-110" edge="1">
          <mxGeometry relative="1" as="geometry">
            <mxPoint x="800" y="2380" as="targetPoint" />
          </mxGeometry>
        </mxCell>
        <mxCell id="7i-dKK6QnZqKv-kw0g70-143" value="&lt;font style=&quot;font-size: 12px; font-weight: normal;&quot;&gt;输出结构化的任务列表&lt;/font&gt;" style="whiteSpace=wrap;html=1;fontSize=14;fillColor=#F5F5F5;strokeColor=#000000;rounded=0;fontStyle=1;shadow=1;" parent="1" vertex="1">
          <mxGeometry x="700" y="400" width="200" height="60" as="geometry" />
        </mxCell>
        <mxCell id="7i-dKK6QnZqKv-kw0g70-149" value="失败" style="edgeLabel;html=1;align=center;verticalAlign=middle;resizable=0;points=[];" parent="1" vertex="1" connectable="0">
          <mxGeometry x="675" y="1800" as="geometry">
            <mxPoint x="-4" y="1" as="offset" />
          </mxGeometry>
        </mxCell>
        <mxCell id="ojRhYwykPZPLhRRzEG6r-4" value="工程..." style="rounded=0;whiteSpace=wrap;html=1;fillColor=#d5e8d4;strokeColor=#82b366;fontSize=12;" vertex="1" parent="1">
          <mxGeometry x="930" y="810" width="110" height="50" as="geometry" />
        </mxCell>
        <mxCell id="ojRhYwykPZPLhRRzEG6r-6" style="edgeStyle=orthogonalEdgeStyle;rounded=0;orthogonalLoop=1;jettySize=auto;html=1;exitX=1;exitY=0.5;exitDx=0;exitDy=0;entryX=0.5;entryY=0;entryDx=0;entryDy=0;" edge="1" parent="1" source="ojRhYwykPZPLhRRzEG6r-5" target="ojRhYwykPZPLhRRzEG6r-4">
          <mxGeometry relative="1" as="geometry">
            <mxPoint x="1310" y="890" as="targetPoint" />
          </mxGeometry>
        </mxCell>
        <mxCell id="ojRhYwykPZPLhRRzEG6r-9" style="edgeStyle=orthogonalEdgeStyle;rounded=0;orthogonalLoop=1;jettySize=auto;html=1;exitX=0;exitY=0.5;exitDx=0;exitDy=0;entryX=0.5;entryY=0;entryDx=0;entryDy=0;" edge="1" parent="1" source="ojRhYwykPZPLhRRzEG6r-5" target="ojRhYwykPZPLhRRzEG6r-8">
          <mxGeometry relative="1" as="geometry" />
        </mxCell>
        <mxCell id="ojRhYwykPZPLhRRzEG6r-10" style="edgeStyle=orthogonalEdgeStyle;rounded=0;orthogonalLoop=1;jettySize=auto;html=1;exitX=0.5;exitY=1;exitDx=0;exitDy=0;entryX=0.5;entryY=0;entryDx=0;entryDy=0;" edge="1" parent="1" source="ojRhYwykPZPLhRRzEG6r-5" target="7i-dKK6QnZqKv-kw0g70-94">
          <mxGeometry relative="1" as="geometry" />
        </mxCell>
        <mxCell id="ojRhYwykPZPLhRRzEG6r-5" value="多工程并行处理" style="rounded=0;whiteSpace=wrap;html=1;fillColor=#FFCCCC;" vertex="1" parent="1">
          <mxGeometry x="700" y="700" width="200" height="60" as="geometry" />
        </mxCell>
        <mxCell id="ojRhYwykPZPLhRRzEG6r-8" value="工程1" style="rounded=0;whiteSpace=wrap;html=1;fillColor=#d5e8d4;strokeColor=#82b366;fontSize=12;" vertex="1" parent="1">
          <mxGeometry x="500" y="810" width="110" height="50" as="geometry" />
        </mxCell>
        <mxCell id="ojRhYwykPZPLhRRzEG6r-11" value="结束" style="rounded=0;whiteSpace=wrap;html=1;fillColor=#D5E8D4;strokeColor=#666666;fontSize=12;" vertex="1" parent="1">
          <mxGeometry x="725" y="2490" width="150" height="60" as="geometry" />
        </mxCell>
      </root>
    </mxGraphModel>
  </diagram>
</mxfile>
